<svg width="291" height="332" viewBox="0 0 291 332" fill="none" xmlns="http://www.w3.org/2000/svg">
<path d="M138.354 4C142.18 1.79086 148.384 1.79086 152.21 4L207.636 36C211.462 38.2091 211.462 41.7909 207.636 44L152.21 76C148.384 78.2091 142.18 78.2091 138.354 76L82.9282 44C79.1019 41.7909 79.1019 38.2091 82.9282 36L138.354 4Z" fill="#090909" stroke="#747474"/>
<rect width="64" height="160" transform="matrix(0.866025 0.5 0 1 82.9282 44)" fill="#090909"/>
<rect width="64" height="160" transform="matrix(0.866025 -0.5 0 1 152.21 76)" fill="#090909"/>
<path d="M80.0585 40C80.0585 41.5621 81.1551 42.9763 82.9282 44V204C81.1551 202.976 80.0585 201.562 80.0585 200V40Z" fill="#090909" stroke="#747474"/>
<path d="M138.354 76C142.18 78.2091 148.384 78.2091 152.21 76V236C148.384 238.209 142.18 238.209 138.354 236V76Z" fill="#090909" stroke="#747474"/>
<path d="M210.506 40C210.506 41.5621 209.409 42.9763 207.636 44V204C209.409 202.976 210.506 201.562 210.506 200V40Z" stroke="#747474"/>
<path d="M62.3538 176C66.1802 173.791 72.3839 173.791 76.2102 176L131.636 208C135.462 210.209 135.462 213.791 131.636 216L76.2102 248C72.3839 250.209 66.1802 250.209 62.3538 248L6.92822 216C3.10188 213.791 3.10187 210.209 6.92822 208L62.3538 176Z" fill="#090909" stroke="#747474"/>
<path d="M6.92822 216L62.3538 248V288L6.92822 256V216Z" fill="#090909"/>
<path d="M6.92822 256L6.49521 255.75V256.25L6.92822 256.5V256ZM62.3538 288V287.5L6.92822 255.5V256V256.5L62.3538 288.5V288ZM6.92822 256L7.36124 256.25V216.25L6.92822 216L6.49521 215.75V255.75L6.92822 256Z" fill="#747474"/>
<path d="M76.2102 248L131.636 216V256L76.2102 288V248Z" fill="#090909"/>
<path d="M76.2102 248V247.5L75.7772 247.75V248.25L76.2102 248ZM76.2102 288L75.7772 288.25V288.75L76.2102 288.5V288ZM76.2102 248V248.5L131.636 216.5V216V215.5L76.2102 247.5V248ZM131.636 256V255.5L76.2102 287.5V288V288.5L131.636 256.5V256ZM76.2102 288L76.6432 287.75V247.75L76.2102 248L75.7772 248.25V288.25L76.2102 288Z" fill="#747474"/>
<path d="M4.05847 212C4.05847 213.562 5.15515 214.976 6.92823 216V256C5.15515 254.976 4.05847 253.562 4.05847 252V212Z" fill="#090909"/>
<path d="M62.3538 248C66.1802 250.209 72.3839 250.209 76.2102 248V288C72.3839 290.209 66.1802 290.209 62.3538 288V248Z" fill="#090909" stroke="#747474"/>
<path d="M134.506 212C134.506 213.562 133.409 214.976 131.636 216V256C133.409 254.976 134.506 253.562 134.506 252V212Z" fill="#6580E1"/>
<path d="M214.354 96C218.18 93.7909 224.384 93.7909 228.21 96L283.636 128C287.462 130.209 287.462 133.791 283.636 136L228.21 168C224.384 170.209 218.18 170.209 214.354 168L158.928 136C155.102 133.791 155.102 130.209 158.928 128L214.354 96Z" fill="#090909" stroke="#747474"/>
<path d="M158.928 136L214.354 168V288L158.928 256V136Z" fill="#090909"/>
<path d="M214.354 288V287.5L158.928 255.5V256V256.5L214.354 288.5V288Z" fill="#747474"/>
<path d="M228.21 168L283.636 136V256L228.21 288V168Z" fill="#090909"/>
<path d="M283.636 256V255.5L228.21 287.5V288V288.5L283.636 256.5V256Z" fill="#747474"/>
<path d="M156.058 132C156.058 133.562 157.155 134.976 158.928 136V256C157.155 254.976 156.058 253.562 156.058 252V132Z" fill="#090909" stroke="#747474"/>
<path d="M214.354 168C218.18 170.209 224.384 170.209 228.21 168V288C224.384 290.209 218.18 290.209 214.354 288V168Z" fill="#090909" stroke="#747474"/>
<path d="M286.506 132C286.506 133.562 285.409 134.976 283.636 136V256C285.409 254.976 286.506 253.562 286.506 252V132Z" fill="#090909" stroke="#747474"/>
<path d="M138.354 177C142.18 174.791 148.384 174.791 152.21 177L207.636 209C211.462 211.209 211.462 214.791 207.636 217L152.21 249C148.384 251.209 142.18 251.209 138.354 249L82.9282 217C79.1019 214.791 79.1019 211.209 82.9282 209L138.354 177Z" fill="#090909" stroke="#747474"/>
<path d="M82.9282 217L138.354 249V329L82.9282 297V217Z" fill="#090909"/>
<path d="M138.354 329V328.5L82.9282 296.5V297V297.5L138.354 329.5V329Z" fill="#747474"/>
<path d="M152.21 249L207.636 217V297L152.21 329V249Z" fill="#090909"/>
<path d="M207.636 297V296.5L152.21 328.5V329V329.5L207.636 297.5V297Z" fill="#747474"/>
<path d="M80.0585 213C80.0585 214.562 81.1551 215.976 82.9282 217V297C81.1551 295.976 80.0585 294.562 80.0585 293V213Z" fill="#090909" stroke="#747474"/>
<path d="M138.354 249C142.18 251.209 148.384 251.209 152.21 249V329C148.384 331.209 142.18 331.209 138.354 329V249Z" fill="#090909" stroke="#747474"/>
<path d="M210.506 213C210.506 214.562 209.409 215.976 207.636 217V297C209.409 295.976 210.506 294.562 210.506 293V213Z" fill="#090909" stroke="#747474"/>
</svg>
