<svg width="123" height="117" viewBox="0 0 123 117" fill="none" xmlns="http://www.w3.org/2000/svg">
<g clip-path="url(#clip0_169_2)">
<path d="M101.42 40.78C101.42 40.19 101.4 39.61 101.38 39.03V5.88L92.22 15.05C84.72 5.86 73.31 0 60.53 0C47.23 0 35.41 6.35 27.94 16.18L42.96 31.36C44.43 28.64 46.52 26.3 49.04 24.53C51.66 22.48 55.38 20.81 60.52 20.81C61.14 20.81 61.62 20.88 61.97 21.02C68.34 21.52 73.86 25.04 77.11 30.14L66.48 40.77C79.95 40.72 95.17 40.69 101.42 40.78Z" fill="#001F8F"/>
<path d="M60.29 0C59.7 0 59.12 0.02 58.54 0.04H25.38L34.55 9.2C25.37 16.71 19.5 28.12 19.5 40.9C19.5 54.2 25.85 66.02 35.68 73.49L50.86 58.47C48.14 57 45.8 54.91 44.03 52.39C41.98 49.77 40.31 46.05 40.31 40.91C40.31 40.29 40.38 39.81 40.52 39.46C41.02 33.09 44.54 27.57 49.64 24.32L60.27 34.95C60.23 21.47 60.19 6.26 60.29 0Z" fill="#1F73FF"/>
<path d="M19.51 40.8999C19.51 41.4899 19.53 42.0699 19.55 42.6499V75.7999L28.71 66.6399C36.21 75.8199 47.62 81.6799 60.4 81.6799C73.7 81.6799 85.52 75.3299 92.99 65.4999L77.97 50.3199C76.5 53.0399 74.41 55.3799 71.89 57.1499C69.27 59.1999 65.55 60.8699 60.41 60.8699C59.79 60.8699 59.31 60.7999 58.96 60.6599C52.59 60.1599 47.07 56.6399 43.82 51.5399L54.45 40.9099C40.98 40.9599 25.76 40.9899 19.51 40.8999Z" fill="#EAEAEA"/>
<path d="M26.41 97.52C25.41 97.52 24.52 97.71 23.73 98.09C22.94 98.46 22.27 98.99 21.72 99.67C21.18 100.36 20.76 101.19 20.47 102.17C20.19 103.14 20.05 104.23 20.05 105.43V108.89C20.05 110.1 20.19 111.19 20.47 112.16C20.76 113.13 21.17 113.96 21.71 114.65C22.24 115.34 22.89 115.86 23.64 116.23C24.4 116.6 25.25 116.78 26.19 116.78C27.16 116.78 28.01 116.64 28.74 116.36C29.48 116.08 30.1 115.67 30.59 115.14C31.09 114.6 31.47 113.95 31.74 113.18C32.01 112.42 32.18 111.55 32.23 110.58H29.85C29.79 111.33 29.69 111.97 29.54 112.5C29.39 113.02 29.18 113.46 28.9 113.8C28.63 114.14 28.26 114.38 27.82 114.55C27.38 114.7 26.84 114.78 26.2 114.78C25.51 114.78 24.93 114.63 24.45 114.33C23.97 114.02 23.58 113.6 23.28 113.07C22.99 112.54 22.77 111.91 22.64 111.2C22.51 110.49 22.45 109.72 22.45 108.89V105.4C22.45 104.52 22.53 103.71 22.68 102.99C22.84 102.27 23.09 101.66 23.41 101.15C23.74 100.64 24.15 100.25 24.65 99.98C25.15 99.7 25.74 99.56 26.43 99.56C27.01 99.56 27.5 99.65 27.91 99.82C28.32 99.98 28.67 100.24 28.94 100.59C29.21 100.93 29.42 101.37 29.57 101.9C29.72 102.43 29.81 103.07 29.87 103.81H32.25C32.21 102.8 32.05 101.9 31.77 101.12C31.5 100.34 31.11 99.68 30.62 99.15C30.13 98.62 29.53 98.21 28.83 97.94C28.12 97.66 27.32 97.52 26.41 97.52ZM84.58 97.52C83.58 97.52 82.69 97.71 81.9 98.09C81.11 98.46 80.44 98.99 79.89 99.67C79.35 100.36 78.93 101.19 78.64 102.17C78.36 103.14 78.22 104.23 78.22 105.43V108.89C78.22 110.1 78.36 111.19 78.64 112.16C78.93 113.13 79.35 113.96 79.88 114.65C80.41 115.34 81.06 115.86 81.81 116.23C82.57 116.6 83.42 116.78 84.36 116.78C85.33 116.78 86.18 116.64 86.91 116.36C87.65 116.08 88.27 115.67 88.77 115.14C89.27 114.6 89.65 113.95 89.92 113.18C90.19 112.42 90.36 111.55 90.41 110.58H88.03C87.97 111.33 87.87 111.97 87.72 112.5C87.57 113.02 87.36 113.46 87.08 113.8C86.8 114.14 86.45 114.38 86 114.55C85.56 114.7 85.02 114.78 84.38 114.78C83.69 114.78 83.11 114.63 82.63 114.33C82.15 114.02 81.76 113.6 81.46 113.07C81.17 112.54 80.95 111.91 80.82 111.2C80.69 110.49 80.63 109.72 80.63 108.89V105.4C80.63 104.52 80.71 103.71 80.86 102.99C81.02 102.27 81.27 101.66 81.59 101.15C81.91 100.64 82.33 100.25 82.83 99.98C83.33 99.7 83.92 99.56 84.61 99.56C85.19 99.56 85.68 99.65 86.09 99.82C86.5 99.98 86.85 100.24 87.12 100.59C87.4 100.93 87.61 101.37 87.75 101.9C87.89 102.43 87.99 103.07 88.04 103.81H90.42C90.38 102.8 90.22 101.9 89.94 101.12C89.66 100.34 89.28 99.68 88.79 99.15C88.3 98.62 87.7 98.21 87 97.94C86.29 97.66 85.49 97.52 84.58 97.52ZM39.98 97.78L33.94 116.54H36.36L37.82 111.65H44.16L45.64 116.54H48.06L42.01 97.78H39.98ZM50.61 97.78V116.54H52.97V109.2H56.59C57.49 109.2 58.29 109.07 58.99 108.83C59.69 108.57 60.27 108.2 60.74 107.72C61.22 107.24 61.58 106.65 61.82 105.94C62.07 105.23 62.19 104.42 62.19 103.52C62.19 102.69 62.06 101.92 61.82 101.23C61.58 100.53 61.22 99.92 60.75 99.41C60.28 98.9 59.69 98.5 58.98 98.21C58.28 97.93 57.49 97.78 56.58 97.78H50.61ZM64 97.78V99.82H68.92V116.54H71.28V99.81H76.21V97.77H64V97.78ZM93.59 97.78V116.54H95.95V107.87H103.5V116.54H105.87V97.78H103.5V105.84H95.95V97.78H93.59ZM114.8 97.78L108.76 116.54H111.18L112.64 111.65H118.98L120.46 116.54H122.88L116.83 97.78H114.8ZM52.97 99.81H56.59C57.17 99.81 57.65 99.91 58.06 100.12C58.47 100.33 58.81 100.6 59.06 100.94C59.33 101.28 59.52 101.68 59.64 102.14C59.77 102.59 59.83 103.05 59.83 103.53C59.83 104.06 59.77 104.55 59.64 105C59.52 105.44 59.33 105.82 59.06 106.15C58.8 106.47 58.47 106.72 58.06 106.9C57.66 107.08 57.17 107.17 56.59 107.17H52.97V99.81ZM40.99 101.08L43.55 109.61H38.44L40.99 101.08ZM115.81 101.08L118.37 109.61H113.25L115.81 101.08ZM4.84 102.34C4.25 102.34 3.74 102.49 3.31 102.79C2.89 103.09 2.54 103.5 2.25 104.01L2.21 102.59H0V116.53H2.28V106.56C2.49 105.97 2.8 105.5 3.19 105.16C3.59 104.82 4.1 104.64 4.72 104.64C4.92 104.64 5.09 104.65 5.25 104.67C5.4 104.68 5.57 104.7 5.75 104.73L5.74 102.51C5.71 102.49 5.65 102.48 5.57 102.46C5.5 102.43 5.42 102.41 5.34 102.4C5.26 102.39 5.16 102.37 5.07 102.36C4.99 102.35 4.91 102.34 4.84 102.34ZM12.51 102.34C11.85 102.34 11.21 102.46 10.59 102.69C9.97 102.92 9.42 103.3 8.94 103.84C8.47 104.36 8.09 105.05 7.79 105.9C7.5 106.74 7.35 107.78 7.35 109V110.57C7.35 111.63 7.47 112.56 7.72 113.34C7.97 114.12 8.33 114.77 8.79 115.29C9.26 115.8 9.83 116.17 10.5 116.42C11.17 116.67 11.92 116.79 12.75 116.79C13.35 116.79 13.89 116.73 14.36 116.61C14.84 116.49 15.27 116.33 15.64 116.15C16.01 115.95 16.33 115.73 16.59 115.48C16.86 115.23 17.08 114.97 17.27 114.71L16.08 113.27C15.89 113.5 15.69 113.72 15.47 113.91C15.26 114.1 15.02 114.27 14.76 114.41C14.5 114.55 14.22 114.66 13.91 114.73C13.6 114.81 13.25 114.85 12.87 114.85C11.81 114.85 11 114.51 10.44 113.83C9.88 113.15 9.6 112.07 9.6 110.57V110.25H17.38V108.92C17.38 107.86 17.29 106.92 17.11 106.1C16.93 105.28 16.64 104.6 16.25 104.04C15.85 103.48 15.35 103.06 14.73 102.78C14.13 102.48 13.38 102.34 12.51 102.34ZM12.51 104.3C13.01 104.3 13.42 104.39 13.75 104.57C14.08 104.75 14.33 105 14.52 105.33C14.72 105.66 14.86 106.05 14.94 106.5C15.03 106.95 15.09 107.44 15.12 107.98V108.29H9.64C9.67 107.51 9.77 106.86 9.92 106.34C10.07 105.83 10.28 105.42 10.53 105.12C10.79 104.81 11.08 104.6 11.42 104.48C11.75 104.36 12.11 104.3 12.51 104.3Z" fill="#A6A6A6"/>
</g>
<defs>
<clipPath id="clip0_169_2">
<rect width="122.88" height="116.79" fill="white"/>
</clipPath>
</defs>
</svg>
